<svg width="66" height="17" viewBox="0 0 66 17" fill="none" xmlns="http://www.w3.org/2000/svg">
<path d="M4.59187 16.2945C6.35155 16.2945 7.26687 15.2798 7.6855 14.3716H7.81322V16.1171H10.7933V1.58554H7.77775V7.04907H7.6855C7.28106 6.16213 6.40832 5.07652 4.58478 5.07652C2.1936 5.07652 0.171387 6.93554 0.171387 10.682C0.171387 14.329 2.10845 16.2945 4.59187 16.2945ZM5.54976 13.8891C4.06681 13.8891 3.25792 12.5694 3.25792 10.6678C3.25792 8.78036 4.05262 7.48189 5.54976 7.48189C7.01853 7.48189 7.84161 8.7236 7.84161 10.6678C7.84161 12.6119 7.00434 13.8891 5.54976 13.8891Z" fill="#161E2E"/>
<path d="M18.2454 16.33C20.9416 16.33 22.7581 15.0173 23.1838 12.9951L20.3882 12.8106C20.0831 13.6408 19.3026 14.0736 18.295 14.0736C16.7837 14.0736 15.8258 13.0731 15.8258 11.4483V11.4412H23.2477V10.611C23.2477 6.90716 21.0055 5.07652 18.1247 5.07652C14.9176 5.07652 12.8386 7.35417 12.8386 10.7174C12.8386 14.1729 14.8892 16.33 18.2454 16.33ZM15.8258 9.56796C15.8897 8.32625 16.8334 7.33289 18.1744 7.33289C19.4871 7.33289 20.3953 8.26949 20.4024 9.56796H15.8258Z" fill="#161E2E"/>
<path d="M28.2429 1.58554H25.2202V16.1171H28.2429V1.58554Z" fill="#161E2E"/>
<path d="M30.6642 16.1171H33.6869V5.21843H30.6642V16.1171ZM32.1827 3.81353C33.0838 3.81353 33.8217 3.12526 33.8217 2.2809C33.8217 1.44363 33.0838 0.755371 32.1827 0.755371C31.2886 0.755371 30.5507 1.44363 30.5507 2.2809C30.5507 3.12526 31.2886 3.81353 32.1827 3.81353Z" fill="#161E2E"/>
<path d="M46.269 5.21843H43.0689L40.8125 13.0164H40.699L38.4356 5.21843H35.2426L39.0529 16.1171H42.4587L46.269 5.21843Z" fill="#161E2E"/>
<path d="M52.4119 16.33C55.1082 16.33 56.9246 15.0173 57.3503 12.9951L54.5547 12.8106C54.2496 13.6408 53.4691 14.0736 52.4616 14.0736C50.9502 14.0736 49.9923 13.0731 49.9923 11.4483V11.4412H57.4142V10.611C57.4142 6.90716 55.172 5.07652 52.2913 5.07652C49.0841 5.07652 47.0051 7.35417 47.0051 10.7174C47.0051 14.1729 49.0557 16.33 52.4119 16.33ZM49.9923 9.56796C50.0562 8.32625 50.9999 7.33289 52.3409 7.33289C53.6536 7.33289 54.5618 8.26949 54.5689 9.56796H49.9923Z" fill="#161E2E"/>
<path d="M59.3867 16.1171H62.4094V9.95112C62.4094 8.61007 63.3886 7.68766 64.7226 7.68766C65.1412 7.68766 65.7159 7.75861 65.9997 7.85086V5.16876C65.7301 5.1049 65.354 5.06233 65.0489 5.06233C63.8285 5.06233 62.8281 5.77188 62.4307 7.12002H62.3172V5.21843H59.3867V16.1171Z" fill="#161E2E"/>
</svg>
