<svg width="43" height="33" viewBox="0 0 43 33" fill="none" xmlns="http://www.w3.org/2000/svg">
<path fill-rule="evenodd" clip-rule="evenodd" d="M21.5 0C16.1915 0 11.8882 4.28572 11.8882 9.57252V23.1756C11.8882 24.4278 10.8691 25.4427 9.61176 25.4427C8.3545 25.4427 7.33529 24.4278 7.33529 23.1756V20.7974C7.33529 18.7718 5.69323 17.1298 3.66765 17.1298C1.64206 17.1298 0 18.7718 0 20.7974V23.4275C0 28.7143 4.30334 33 9.61176 33C14.9202 33 19.2235 28.7143 19.2235 23.4275V9.57252C19.2235 8.32028 20.2426 7.30534 21.5 7.30534C22.7574 7.30534 23.7765 8.32028 23.7765 9.57252V10.2483C23.7765 11.539 24.4843 12.7259 25.6199 13.3394C26.5972 13.8673 27.7665 13.902 28.7734 13.4329L28.9095 13.3695C30.2529 12.7437 31.1118 11.396 31.1118 9.91396V9.57252C31.1118 4.28572 26.8085 0 21.5 0ZM26.2061 18.3648C25.0692 17.8458 23.7765 18.6767 23.7765 19.9265V23.4275C23.7765 28.7143 28.0798 33 33.3882 33C38.6967 33 43 28.7143 43 23.4275V21.0493C43 19.0237 41.3579 17.3817 39.3324 17.3817C37.3068 17.3817 35.6647 19.0237 35.6647 21.0493V23.4275C35.6647 24.6797 34.6456 25.6947 33.3882 25.6947C32.1309 25.6947 31.1118 24.6797 31.1118 23.4275V20.7783C31.1118 19.0378 29.4156 17.8022 27.7589 18.336L27.4455 18.437C27.0378 18.5684 26.5957 18.5426 26.2061 18.3648Z" fill="#FFF8F1"/>
</svg>
