<svg width="74" height="20" viewBox="0 0 74 20" fill="none" xmlns="http://www.w3.org/2000/svg">
<rect width="74" height="20" rx="4" fill="#FEECDC"/>
<path d="M15.5 5.41663L16.9163 8.28579L20.0834 8.74871L17.7917 10.9808L18.3325 14.1341L15.5 12.6445L12.6675 14.1341L13.2084 10.9808L10.9167 8.74871L14.0838 8.28579L15.5 5.41663Z" fill="#FF5A1F"/>
<path d="M26.6321 14H28.1697V11.642H29.4624C31.1349 11.642 32.108 10.6442 32.108 9.19176C32.108 7.74645 31.1527 6.72727 29.5014 6.72727H26.6321V14ZM28.1697 10.4098V7.98438H29.2067C30.0945 7.98438 30.5241 8.46733 30.5241 9.19176C30.5241 9.91264 30.0945 10.4098 29.2138 10.4098H28.1697ZM35.4549 14.1065C37.1097 14.1065 38.1396 12.9737 38.1396 11.294C38.1396 9.60369 37.1097 8.47443 35.4549 8.47443C33.8001 8.47443 32.7702 9.60369 32.7702 11.294C32.7702 12.9737 33.8001 14.1065 35.4549 14.1065ZM35.462 12.9347C34.6985 12.9347 34.3079 12.2351 34.3079 11.2834C34.3079 10.3317 34.6985 9.62855 35.462 9.62855C36.2113 9.62855 36.6019 10.3317 36.6019 11.2834C36.6019 12.2351 36.2113 12.9347 35.462 12.9347ZM39.1232 16.0455H40.636V13.1264H40.6822C40.8917 13.581 41.3498 14.0888 42.2305 14.0888C43.4734 14.0888 44.4428 13.1051 44.4428 11.2798C44.4428 9.40483 43.4308 8.47443 42.234 8.47443C41.3214 8.47443 40.8846 9.01776 40.6822 9.46165H40.6147V8.54545H39.1232V16.0455ZM40.604 11.2727C40.604 10.2997 41.016 9.67827 41.7511 9.67827C42.5004 9.67827 42.8981 10.3281 42.8981 11.2727C42.8981 12.2244 42.4933 12.8849 41.7511 12.8849C41.0231 12.8849 40.604 12.2457 40.604 11.2727ZM48.9492 11.6776C48.9528 12.4091 48.4521 12.7926 47.9087 12.7926C47.337 12.7926 46.9677 12.3913 46.9641 11.7486V8.54545H45.4513V12.0185C45.4549 13.2933 46.2006 14.071 47.2979 14.071C48.1183 14.071 48.7077 13.6484 48.9528 13.0092H49.0096V14H50.462V8.54545H48.9492V11.6776ZM53.1848 6.72727H51.6721V14H53.1848V6.72727ZM55.9521 14.103C56.7582 14.103 57.2802 13.7514 57.5465 13.2436H57.5891V14H59.0238V10.321C59.0238 9.02131 57.9229 8.47443 56.7085 8.47443C55.4016 8.47443 54.5423 9.09943 54.3327 10.0938L55.7319 10.2074C55.8349 9.84517 56.158 9.57884 56.7013 9.57884C57.2163 9.57884 57.511 9.83807 57.511 10.2855V10.3068C57.511 10.6584 57.1381 10.7045 56.19 10.7969C55.1104 10.8963 54.141 11.2585 54.141 12.4766C54.141 13.5561 54.9116 14.103 55.9521 14.103ZM56.3853 13.0589C55.9201 13.0589 55.5863 12.8423 55.5863 12.4268C55.5863 12.0007 55.9379 11.7912 56.4705 11.7166C56.8008 11.6705 57.3406 11.5923 57.5217 11.4716V12.0504C57.5217 12.6222 57.0494 13.0589 56.3853 13.0589ZM60.1974 14H61.7102V10.9141C61.7102 10.2429 62.2003 9.78125 62.8679 9.78125C63.0774 9.78125 63.3651 9.81676 63.5071 9.86293V8.5206C63.3722 8.48864 63.1839 8.46733 63.0312 8.46733C62.4205 8.46733 61.9197 8.82244 61.7209 9.49716H61.6641V8.54545H60.1974V14Z" fill="#FF5A1F"/>
</svg>
