<svg width="25" height="25" viewBox="0 0 25 25" fill="none" xmlns="http://www.w3.org/2000/svg">
<path d="M21.924 13.6001C21.6593 13.6001 21.3826 13.5158 21.1179 13.4557C20.5819 13.3376 20.0551 13.1807 19.5418 12.9864C18.9836 12.7834 18.3701 12.7939 17.8192 13.0161C17.2684 13.2382 16.8191 13.6562 16.5579 14.1896L16.2932 14.731C15.1213 14.0791 14.0445 13.2695 13.0928 12.3247C12.148 11.373 11.3384 10.2962 10.6865 9.12428L11.1918 8.78739C11.7252 8.5262 12.1432 8.07696 12.3654 7.5261C12.5875 6.97524 12.598 6.3617 12.395 5.80353C12.2039 5.28909 12.0472 4.76255 11.9257 4.22739C11.8656 3.96269 11.8174 3.68596 11.7813 3.40923C11.6352 2.56175 11.1913 1.79427 10.5296 1.24502C9.86785 0.695773 9.03174 0.400843 8.17184 0.413346H4.56234C4.04381 0.408477 3.53032 0.51539 3.05683 0.726807C2.58333 0.938224 2.16095 1.24918 1.81843 1.63851C1.47591 2.02784 1.2213 2.4864 1.07193 2.98297C0.922565 3.47954 0.881944 4.00246 0.952835 4.51615C1.59381 9.55667 3.89582 14.24 7.49524 17.8263C11.0947 21.4127 15.7863 23.6977 20.8292 24.3203H21.2864C22.1736 24.3216 23.0302 23.9961 23.6927 23.4059C24.0733 23.0654 24.3774 22.6481 24.5848 22.1814C24.7922 21.7148 24.8982 21.2094 24.8959 20.6987V17.0892C24.8811 16.2535 24.5768 15.4488 24.0348 14.8125C23.4928 14.1761 22.7468 13.7476 21.924 13.6001ZM22.5256 20.8191C22.5254 20.9899 22.4888 21.1587 22.4183 21.3143C22.3477 21.4699 22.2449 21.6087 22.1165 21.7214C21.9821 21.8375 21.8249 21.9242 21.655 21.976C21.4851 22.0278 21.3063 22.0436 21.13 22.0222C16.624 21.4445 12.4386 19.3831 9.23389 16.1632C6.02923 12.9432 3.98772 8.74809 3.43136 4.23942C3.41221 4.06318 3.42899 3.88488 3.48069 3.71531C3.53239 3.54573 3.61793 3.3884 3.73215 3.25282C3.8449 3.12448 3.98369 3.02162 4.13928 2.95109C4.29487 2.88055 4.4637 2.84396 4.63453 2.84374H8.24403C8.52382 2.83752 8.79703 2.92902 9.01664 3.10251C9.23624 3.276 9.38849 3.52061 9.4472 3.79425C9.49532 4.12311 9.55548 4.44797 9.62767 4.76881C9.76666 5.40305 9.95164 6.02634 10.1811 6.63372L8.49669 7.41578C8.35267 7.48186 8.22312 7.57574 8.11548 7.69202C8.00784 7.80831 7.92423 7.94471 7.86945 8.0934C7.81467 8.24208 7.7898 8.40013 7.79627 8.55845C7.80274 8.71678 7.84042 8.87227 7.90714 9.01599C9.63874 12.7251 12.6202 15.7066 16.3293 17.4382C16.6222 17.5585 16.9508 17.5585 17.2437 17.4382C17.3938 17.3845 17.5317 17.3015 17.6494 17.1941C17.7671 17.0867 17.8623 16.957 17.9295 16.8125L18.6755 15.1281C19.2975 15.3505 19.9323 15.5353 20.5765 15.6815C20.8973 15.7537 21.2222 15.8139 21.5511 15.862C21.8247 15.9207 22.0693 16.073 22.2428 16.2926C22.4163 16.5122 22.5078 16.7854 22.5016 17.0652L22.5256 20.8191Z" fill="white"/>
</svg>
